<?xml version="1.0" encoding="UTF-8"?><svg xmlns="http://www.w3.org/2000/svg" xmlns:xlink="http://www.w3.org/1999/xlink" fill-opacity="1" color-rendering="auto" color-interpolation="auto" text-rendering="auto" stroke="black" stroke-linecap="square" width="449" stroke-miterlimit="10" shape-rendering="auto" stroke-opacity="1" fill="black" stroke-dasharray="none" font-weight="normal" stroke-width="1" height="677" font-family="'Dialog'" font-style="normal" stroke-linejoin="miter" font-size="12px" stroke-dashoffset="0" image-rendering="auto">
  <!--Generated by ySVG 2.5-->
  <defs id="genericDefs"/>
  <g>
    <defs id="defs1">
      <clipPath clipPathUnits="userSpaceOnUse" id="clipPath1">
        <path d="M0 0 L449 0 L449 677 L0 677 L0 0 Z"/>
      </clipPath>
      <clipPath clipPathUnits="userSpaceOnUse" id="clipPath2">
        <path d="M405 255 L854 255 L854 932 L405 932 L405 255 Z"/>
      </clipPath>
    </defs>
    <g text-rendering="geometricPrecision" stroke-miterlimit="1.45" shape-rendering="geometricPrecision" transform="matrix(1,0,0,1,-405,-255)" stroke-linecap="butt">
      <ellipse rx="59" fill="none" ry="30" clip-path="url(#clipPath2)" cx="570" cy="300"/>
    </g>
    <g font-size="13px" stroke-linecap="butt" transform="matrix(1,0,0,1,-405,-255)" text-rendering="geometricPrecision" font-family="sans-serif" shape-rendering="geometricPrecision" stroke-miterlimit="1.45">
      <text x="526.7122" xml:space="preserve" y="304.5005" clip-path="url(#clipPath2)" stroke="none">Kotlin project</text>
      <rect fill="none" x="492.5" width="155" height="47" y="366.5" clip-path="url(#clipPath2)"/>
      <text x="533.0376" xml:space="preserve" y="386.9341" clip-path="url(#clipPath2)" stroke="none">Preliminary</text>
      <text x="526.636" xml:space="preserve" y="402.0669" clip-path="url(#clipPath2)" stroke="none">simplification</text>
      <rect fill="none" x="492.5" width="155" height="47" y="456.5" clip-path="url(#clipPath2)"/>
      <text x="548.637" xml:space="preserve" y="484.5005" clip-path="url(#clipPath2)" stroke="none">Slicing</text>
      <rect fill="none" x="492.5" width="155" height="47" y="546.5" clip-path="url(#clipPath2)"/>
      <text x="501.769" xml:space="preserve" y="574.5005" clip-path="url(#clipPath2)" stroke="none">Text transformations</text>
      <rect fill="none" x="492.5" width="155" height="47" y="636.5" clip-path="url(#clipPath2)"/>
      <text x="530.178" xml:space="preserve" y="656.9341" clip-path="url(#clipPath2)" stroke="none">Syntax tree </text>
      <text x="518.2" xml:space="preserve" y="672.0669" clip-path="url(#clipPath2)" stroke="none">transformations</text>
      <rect fill="none" x="492.5" width="155" height="47" y="726.5" clip-path="url(#clipPath2)"/>
      <text x="534.6912" xml:space="preserve" y="746.9341" clip-path="url(#clipPath2)" stroke="none">Hierarchial</text>
      <text x="516.7971" xml:space="preserve" y="762.0669" clip-path="url(#clipPath2)" stroke="none">delta debugging</text>
      <path fill="none" d="M470 870 L570 823 L670 870 L570 917 Z" fill-rule="evenodd" clip-path="url(#clipPath2)"/>
      <text x="491.9683" xml:space="preserve" y="874.5005" clip-path="url(#clipPath2)" stroke="none">Test case has changed?</text>
      <ellipse rx="59" fill="none" ry="30" clip-path="url(#clipPath2)" cx="780" cy="870"/>
      <text x="767.6919" xml:space="preserve" y="874.5005" clip-path="url(#clipPath2)" stroke="none">Exit</text>
      <path fill="none" d="M570 330 L570 358.5" clip-path="url(#clipPath2)"/>
      <path d="M570 366.5 L575 354.5 L570 357.5 L565 354.5 Z" stroke="none" clip-path="url(#clipPath2)"/>
      <path fill="none" d="M570 413.5 L570 448.5" clip-path="url(#clipPath2)"/>
      <path d="M570 456.5 L575 444.5 L570 447.5 L565 444.5 Z" stroke="none" clip-path="url(#clipPath2)"/>
      <path fill="none" d="M570 503.5 L570 538.5" clip-path="url(#clipPath2)"/>
      <path d="M570 546.5 L575 534.5 L570 537.5 L565 534.5 Z" stroke="none" clip-path="url(#clipPath2)"/>
      <path fill="none" d="M570 593.5 L570 628.5" clip-path="url(#clipPath2)"/>
      <path d="M570 636.5 L575 624.5 L570 627.5 L565 624.5 Z" stroke="none" clip-path="url(#clipPath2)"/>
      <path fill="none" d="M570 683.5 L570 718.5" clip-path="url(#clipPath2)"/>
      <path d="M570 726.5 L575 714.5 L570 717.5 L565 714.5 Z" stroke="none" clip-path="url(#clipPath2)"/>
      <path fill="none" d="M570 773.5 L570 815.0222" clip-path="url(#clipPath2)"/>
      <path d="M570 823.0222 L575 811.0222 L570 814.0222 L565 811.0222 Z" stroke="none" clip-path="url(#clipPath2)"/>
      <path fill="none" d="M469.9878 870 L420 870 L420 870 L420 630 L420 349.4 L480 348.3557 L500.6672 348.3557 L556.449 348.3557" clip-path="url(#clipPath2)"/>
      <path d="M564.449 348.3557 L552.449 343.3557 L555.449 348.3557 L552.449 353.3557 Z" stroke="none" clip-path="url(#clipPath2)"/>
      <text x="442.0352" xml:space="preserve" font-size="12px" y="844.1543" clip-path="url(#clipPath2)" stroke="none">Yes</text>
      <path fill="none" d="M670.0012 870 L713 870" clip-path="url(#clipPath2)"/>
      <path d="M721 870 L709 865 L712 870 L709 875 Z" stroke="none" clip-path="url(#clipPath2)"/>
      <text x="677" xml:space="preserve" font-size="12px" y="844.1543" clip-path="url(#clipPath2)" stroke="none">No</text>
    </g>
  </g>
</svg>
