<?xml version="1.0" encoding="UTF-8"?><svg xmlns="http://www.w3.org/2000/svg" xmlns:xlink="http://www.w3.org/1999/xlink" fill-opacity="1" color-rendering="auto" color-interpolation="auto" text-rendering="auto" stroke="black" stroke-linecap="square" width="719" stroke-miterlimit="10" shape-rendering="auto" stroke-opacity="1" fill="black" stroke-dasharray="none" font-weight="normal" stroke-width="1" height="374" font-family="'Dialog'" font-style="normal" stroke-linejoin="miter" font-size="12px" stroke-dashoffset="0" image-rendering="auto">
  <!--Generated by ySVG 2.5-->
  <defs id="genericDefs"/>
  <g>
    <defs id="defs1">
      <clipPath clipPathUnits="userSpaceOnUse" id="clipPath1">
        <path d="M0 0 L719 0 L719 374 L0 374 L0 0 Z"/>
      </clipPath>
      <clipPath clipPathUnits="userSpaceOnUse" id="clipPath2">
        <path d="M301 425 L1020 425 L1020 799 L301 799 L301 425 Z"/>
      </clipPath>
    </defs>
    <g text-rendering="geometricPrecision" stroke-miterlimit="1.45" shape-rendering="geometricPrecision" transform="matrix(1,0,0,1,-301,-425)" stroke-linecap="butt">
      <rect fill="none" x="316.5" width="131" height="51" y="482" clip-path="url(#clipPath2)"/>
    </g>
    <g font-size="16px" stroke-linecap="butt" transform="matrix(1,0,0,1,-301,-425)" text-rendering="geometricPrecision" font-family="'Arial'" shape-rendering="geometricPrecision" stroke-miterlimit="1.45">
      <text x="329.5352" xml:space="preserve" y="513.0469" clip-path="url(#clipPath2)" stroke="none">Kotlin compiler</text>
      <rect fill="none" x="534.5" width="131" height="51" y="482" clip-path="url(#clipPath2)"/>
      <text x="557.7578" xml:space="preserve" y="504.1094" clip-path="url(#clipPath2)" stroke="none">Compilation</text>
      <text x="570.2109" xml:space="preserve" y="521.9844" clip-path="url(#clipPath2)" stroke="none">Checker</text>
      <rect fill="none" x="752.5" width="131" height="51" y="482" clip-path="url(#clipPath2)"/>
      <text x="766.8672" xml:space="preserve" y="513.0469" clip-path="url(#clipPath2)" stroke="none">Postprocessor</text>
      <rect fill="none" x="534.5" width="131" height="51" y="687" clip-path="url(#clipPath2)"/>
      <text x="547.9727" xml:space="preserve" y="718.0469" clip-path="url(#clipPath2)" stroke="none">Test generator</text>
      <path fill="none" d="M709.1006 697.25 L782 697.25 L773.8994 727.75 L701 727.75 Z" fill-rule="evenodd" clip-path="url(#clipPath2)"/>
      <text x="717.4941" xml:space="preserve" font-size="12px" y="709.957" clip-path="url(#clipPath2)" stroke="none">Compiler</text>
      <text x="728.8291" xml:space="preserve" font-size="12px" y="723.3633" clip-path="url(#clipPath2)" stroke="none">tests</text>
      <path fill="none" d="M785.6 586.5 L858.5 586.5 L850.4 617 L777.5 617 Z" fill-rule="evenodd" clip-path="url(#clipPath2)"/>
      <text x="787.6514" xml:space="preserve" font-size="12px" y="605.9102" clip-path="url(#clipPath2)" stroke="none">Developers</text>
      <text x="426.3154" xml:space="preserve" font-size="12px" y="701.5508" clip-path="url(#clipPath2)" stroke="none">Mutations</text>
      <text x="426.3154" xml:space="preserve" font-size="12px" y="714.957" clip-path="url(#clipPath2)" stroke="none">Grammar generator</text>
      <text x="426.3154" xml:space="preserve" font-size="12px" y="728.3633" clip-path="url(#clipPath2)" stroke="none">SPE</text>
      <text x="426.3154" xml:space="preserve" font-size="12px" y="741.7695" clip-path="url(#clipPath2)" stroke="none">TCF</text>
      <text x="899.6396" xml:space="preserve" font-size="12px" y="504.957" clip-path="url(#clipPath2)" stroke="none">ReduKtor</text>
      <text x="899.6396" xml:space="preserve" font-size="12px" y="518.3633" clip-path="url(#clipPath2)" stroke="none">Duplicates detector</text>
      <path fill="none" d="M455.5 507.5 L526.5 507.5" clip-path="url(#clipPath2)"/>
      <path d="M447.5 507.5 L459.5 512.5 L456.5 507.5 L459.5 502.5 Z" stroke="none" clip-path="url(#clipPath2)"/>
      <path d="M534.5 507.5 L522.5 502.5 L525.5 507.5 L522.5 512.5 Z" stroke="none" clip-path="url(#clipPath2)"/>
      <path fill="none" d="M665.5 507.5 L744.5 507.5" clip-path="url(#clipPath2)"/>
      <path d="M752.5 507.5 L740.5 502.5 L743.5 507.5 L740.5 512.5 Z" stroke="none" clip-path="url(#clipPath2)"/>
      <path fill="none" d="M631 533.0314 L631 678.9922" clip-path="url(#clipPath2)"/>
      <path d="M631 686.9922 L636 674.9922 L631 677.9922 L626 674.9922 Z" stroke="none" clip-path="url(#clipPath2)"/>
      <text x="641.5098" font-size="12px" y="612.1543" clip-path="url(#clipPath2)" font-family="sans-serif" stroke="none" xml:space="preserve">Runtime info</text>
      <path fill="none" d="M563 686.963 L563 540.9985" clip-path="url(#clipPath2)"/>
      <path d="M563 532.9985 L558 544.9985 L563 541.9985 L568 544.9985 Z" stroke="none" clip-path="url(#clipPath2)"/>
      <text x="517.0391" font-size="12px" y="614.1543" clip-path="url(#clipPath2)" font-family="sans-serif" stroke="none" xml:space="preserve">Tests</text>
      <path fill="none" d="M537.551 687 L420 639" clip-path="url(#clipPath2)"/>
      <path fill="none" d="M534.5319 738 L419 783" clip-path="url(#clipPath2)"/>
      <path fill="none" d="M873.9111 482 L966 440" clip-path="url(#clipPath2)"/>
      <path fill="none" d="M874.1395 533 L960 572" clip-path="url(#clipPath2)"/>
      <path fill="none" d="M705.0541 712.5 L673.5 712.5" clip-path="url(#clipPath2)"/>
      <path d="M665.5 712.5 L677.5 717.5 L674.5 712.5 L677.5 707.5 Z" stroke="none" clip-path="url(#clipPath2)"/>
      <path fill="none" d="M818 533 L818 578.476" clip-path="url(#clipPath2)"/>
      <path d="M818 586.476 L823 574.476 L818 577.476 L813 574.476 Z" stroke="none" clip-path="url(#clipPath2)"/>
    </g>
  </g>
</svg>
