<?xml version="1.0" encoding="UTF-8"?><svg xmlns="http://www.w3.org/2000/svg" xmlns:xlink="http://www.w3.org/1999/xlink" fill-opacity="1" color-rendering="auto" color-interpolation="auto" text-rendering="auto" stroke="black" stroke-linecap="square" width="532" stroke-miterlimit="10" shape-rendering="auto" stroke-opacity="1" fill="black" stroke-dasharray="none" font-weight="normal" stroke-width="1" height="506" font-family="'Dialog'" font-style="normal" stroke-linejoin="miter" font-size="12px" stroke-dashoffset="0" image-rendering="auto">
  <!--Generated by ySVG 2.5-->
  <defs id="genericDefs"/>
  <g>
    <defs id="defs1">
      <clipPath clipPathUnits="userSpaceOnUse" id="clipPath1">
        <path d="M0 0 L532 0 L532 506 L0 506 L0 0 Z"/>
      </clipPath>
      <clipPath clipPathUnits="userSpaceOnUse" id="clipPath2">
        <path d="M364 97 L896 97 L896 603 L364 603 L364 97 Z"/>
      </clipPath>
    </defs>
    <g text-rendering="geometricPrecision" stroke-miterlimit="1.45" shape-rendering="geometricPrecision" transform="matrix(1,0,0,1,-364,-97)" stroke-linecap="butt">
      <rect x="559" y="142" clip-path="url(#clipPath2)" fill="none" width="142" rx="4" ry="4" height="136"/>
    </g>
    <g text-rendering="geometricPrecision" stroke-miterlimit="1.45" shape-rendering="geometricPrecision" font-family="sans-serif" transform="matrix(1,0,0,1,-364,-97)" stroke-linecap="butt">
      <text x="565.1396" xml:space="preserve" y="158.2793" clip-path="url(#clipPath2)" stroke="none">class A() {</text>
      <text x="565.1396" xml:space="preserve" y="172.248" clip-path="url(#clipPath2)" stroke="none">    fun funWithBug() {</text>
      <text x="565.1396" xml:space="preserve" y="186.2168" clip-path="url(#clipPath2)" stroke="none">        // ...</text>
      <text x="565.1396" xml:space="preserve" y="200.1855" clip-path="url(#clipPath2)" stroke="none">    }</text>
      <text x="565.1396" xml:space="preserve" y="214.1543" clip-path="url(#clipPath2)" stroke="none">    </text>
      <text x="565.1396" xml:space="preserve" y="228.123" clip-path="url(#clipPath2)" stroke="none">    fun f() {</text>
      <text x="565.1396" xml:space="preserve" y="242.0918" clip-path="url(#clipPath2)" stroke="none">        // ...</text>
      <text x="565.1396" xml:space="preserve" y="256.0605" clip-path="url(#clipPath2)" stroke="none">    }</text>
      <text x="565.1396" xml:space="preserve" y="270.0293" clip-path="url(#clipPath2)" stroke="none">}</text>
      <rect x="379" y="342" clip-path="url(#clipPath2)" fill="none" width="142" rx="4" ry="4" height="96"/>
      <text x="402.7324" xml:space="preserve" y="366.2168" clip-path="url(#clipPath2)" stroke="none">class B() {</text>
      <text x="402.7324" xml:space="preserve" y="380.1855" clip-path="url(#clipPath2)" stroke="none">    val a = A()</text>
      <text x="402.7324" xml:space="preserve" y="394.1543" clip-path="url(#clipPath2)" stroke="none">    </text>
      <text x="402.7324" xml:space="preserve" y="408.123" clip-path="url(#clipPath2)" stroke="none">    fun f() = a.f()</text>
      <text x="402.7324" xml:space="preserve" y="422.0918" clip-path="url(#clipPath2)" stroke="none">}</text>
      <rect x="739" y="342" clip-path="url(#clipPath2)" fill="none" width="142" rx="4" ry="4" height="96"/>
      <text x="770.2646" xml:space="preserve" y="380.1855" clip-path="url(#clipPath2)" stroke="none">class C() {</text>
      <text x="770.2646" xml:space="preserve" y="394.1543" clip-path="url(#clipPath2)" stroke="none">    val a = A()</text>
      <text x="770.2646" xml:space="preserve" y="408.123" clip-path="url(#clipPath2)" stroke="none">}</text>
      <rect x="379" y="492" clip-path="url(#clipPath2)" fill="none" width="142" rx="4" ry="4" height="96"/>
      <text x="402.6006" xml:space="preserve" y="516.2168" clip-path="url(#clipPath2)" stroke="none">class D() {</text>
      <text x="402.6006" xml:space="preserve" y="530.1855" clip-path="url(#clipPath2)" stroke="none">    val b = B()</text>
      <text x="402.6006" xml:space="preserve" y="544.1543" clip-path="url(#clipPath2)" stroke="none">    </text>
      <text x="402.6006" xml:space="preserve" y="558.123" clip-path="url(#clipPath2)" stroke="none">    fun f() = b.f()</text>
      <text x="402.6006" xml:space="preserve" y="572.0918" clip-path="url(#clipPath2)" stroke="none">}</text>
      <text x="561.8574" xml:space="preserve" y="131.1543" clip-path="url(#clipPath2)" stroke="none">File A.kt</text>
      <text x="381.8456" xml:space="preserve" y="331.1543" clip-path="url(#clipPath2)" stroke="none">File B.kt</text>
      <text x="381.3417" xml:space="preserve" y="481.1543" clip-path="url(#clipPath2)" stroke="none">File D.kt</text>
      <text x="829.6124" xml:space="preserve" y="331.1543" clip-path="url(#clipPath2)" stroke="none">File C.kt</text>
      <path fill="none" d="M562.0825 277.9175 L503.6805 336.3195" clip-path="url(#clipPath2)"/>
      <path d="M498.0236 341.9764 L510.0444 337.0266 L504.3876 335.6124 L502.9734 329.9556 Z" clip-path="url(#clipPath2)" stroke="none"/>
      <path fill="none" d="M697.9175 277.9175 L756.3195 336.3195" clip-path="url(#clipPath2)"/>
      <path d="M761.9764 341.9763 L757.0266 329.9555 L755.6124 335.6124 L749.9556 337.0266 Z" clip-path="url(#clipPath2)" stroke="none"/>
      <path fill="none" d="M450 438.0103 L450 484.0429" clip-path="url(#clipPath2)"/>
      <path d="M450 492.0429 L455 480.0429 L450 483.0429 L445 480.0429 Z" clip-path="url(#clipPath2)" stroke="none"/>
    </g>
  </g>
</svg>
