<?xml version="1.0" encoding="UTF-8"?><svg xmlns="http://www.w3.org/2000/svg" xmlns:xlink="http://www.w3.org/1999/xlink" fill-opacity="1" color-rendering="auto" color-interpolation="auto" text-rendering="auto" stroke="black" stroke-linecap="square" width="844" stroke-miterlimit="10" shape-rendering="auto" stroke-opacity="1" fill="black" stroke-dasharray="none" font-weight="normal" stroke-width="1" height="336" font-family="'Dialog'" font-style="normal" stroke-linejoin="miter" font-size="12px" stroke-dashoffset="0" image-rendering="auto">
  <!--Generated by ySVG 2.5-->
  <defs id="genericDefs"/>
  <g>
    <defs id="defs1">
      <clipPath clipPathUnits="userSpaceOnUse" id="clipPath1">
        <path d="M0 0 L844 0 L844 336 L0 336 L0 0 Z"/>
      </clipPath>
      <clipPath clipPathUnits="userSpaceOnUse" id="clipPath2">
        <path d="M148 294 L992 294 L992 630 L148 630 L148 294 Z"/>
      </clipPath>
    </defs>
    <g text-rendering="geometricPrecision" stroke-miterlimit="1.45" shape-rendering="geometricPrecision" transform="matrix(1,0,0,1,-148,-294)" stroke-linecap="butt">
      <ellipse rx="21.4" fill="none" ry="20.12" clip-path="url(#clipPath2)" cx="510" cy="330"/>
    </g>
    <g text-rendering="geometricPrecision" stroke-miterlimit="1.45" shape-rendering="geometricPrecision" font-family="sans-serif" transform="matrix(1,0,0,1,-148,-294)" stroke-linecap="butt">
      <text x="503.2061" xml:space="preserve" y="334.1543" clip-path="url(#clipPath2)" stroke="none">f()</text>
      <rect fill="none" x="274.12" width="51.76" height="30" y="405" clip-path="url(#clipPath2)"/>
      <text x="291.1055" xml:space="preserve" y="424.1543" clip-path="url(#clipPath2)" stroke="none">val</text>
      <rect fill="none" x="364.12" width="51.76" height="30" y="405" clip-path="url(#clipPath2)"/>
      <text x="380.3057" xml:space="preserve" y="424.1543" clip-path="url(#clipPath2)" stroke="none">var</text>
      <rect fill="none" x="544.12" width="51.76" height="30" y="405" clip-path="url(#clipPath2)"/>
      <text x="566.2207" xml:space="preserve" y="424.1543" clip-path="url(#clipPath2)" stroke="none">if</text>
      <rect fill="none" x="862.12" width="51.76" height="30" y="405" clip-path="url(#clipPath2)"/>
      <text x="872.2646" xml:space="preserve" y="424.1543" clip-path="url(#clipPath2)" stroke="none">while</text>
      <rect fill="none" x="283.72" width="32.56" height="30" y="495" clip-path="url(#clipPath2)"/>
      <text x="294.9727" xml:space="preserve" y="514.1543" clip-path="url(#clipPath2)" stroke="none">=</text>
      <rect fill="none" x="373.72" width="32.56" height="30" y="495" clip-path="url(#clipPath2)"/>
      <text x="384.9727" xml:space="preserve" y="514.1543" clip-path="url(#clipPath2)" stroke="none">=</text>
      <rect fill="none" x="493.72" width="32.56" height="30" y="495" clip-path="url(#clipPath2)"/>
      <text x="502.5674" xml:space="preserve" y="514.1543" clip-path="url(#clipPath2)" stroke="none">!=</text>
      <rect fill="none" x="613.72" width="32.56" height="30" y="495" clip-path="url(#clipPath2)"/>
      <text x="619.9453" xml:space="preserve" y="514.1543" clip-path="url(#clipPath2)" stroke="none">+=</text>
      <rect fill="none" x="733.72" width="32.56" height="30" y="495" clip-path="url(#clipPath2)"/>
      <text x="739.9453" xml:space="preserve" y="514.1543" clip-path="url(#clipPath2)" stroke="none">+=</text>
      <rect fill="none" x="853.72" width="32.56" height="30" y="495" clip-path="url(#clipPath2)"/>
      <text x="862.5674" xml:space="preserve" y="514.1543" clip-path="url(#clipPath2)" stroke="none">!=</text>
      <rect fill="none" x="935.32" width="32.56" height="30" y="495" clip-path="url(#clipPath2)"/>
      <text x="947.2699" xml:space="preserve" y="514.1543" clip-path="url(#clipPath2)" stroke="none">--</text>
      <rect fill="none" x="163.72" width="32.56" height="30" y="585" clip-path="url(#clipPath2)"/>
      <text x="176.3232" xml:space="preserve" y="604.1543" clip-path="url(#clipPath2)" stroke="none">a</text>
      <rect fill="none" x="253.72" width="32.56" height="30" y="585" clip-path="url(#clipPath2)"/>
      <text x="266.1826" xml:space="preserve" y="604.1543" clip-path="url(#clipPath2)" stroke="none">1</text>
      <rect fill="none" x="343.72" width="32.56" height="30" y="585" clip-path="url(#clipPath2)"/>
      <text x="356.1914" xml:space="preserve" y="604.1543" clip-path="url(#clipPath2)" stroke="none">b</text>
      <rect fill="none" x="403.72" width="32.56" height="30" y="585" clip-path="url(#clipPath2)"/>
      <text x="416.1826" xml:space="preserve" y="604.1543" clip-path="url(#clipPath2)" stroke="none">0</text>
      <rect fill="none" x="463.72" width="32.56" height="30" y="585" clip-path="url(#clipPath2)"/>
      <text x="476.3232" xml:space="preserve" y="604.1543" clip-path="url(#clipPath2)" stroke="none">a</text>
      <rect fill="none" x="643.72" width="32.56" height="30" y="585" clip-path="url(#clipPath2)"/>
      <text x="656.1826" xml:space="preserve" y="604.1543" clip-path="url(#clipPath2)" stroke="none">1</text>
      <rect fill="none" x="583.72" width="32.56" height="30" y="585" clip-path="url(#clipPath2)"/>
      <text x="596.1914" xml:space="preserve" y="604.1543" clip-path="url(#clipPath2)" stroke="none">b</text>
      <rect fill="none" x="523.72" width="32.56" height="30" y="585" clip-path="url(#clipPath2)"/>
      <text x="536.1826" xml:space="preserve" y="604.1543" clip-path="url(#clipPath2)" stroke="none">0</text>
      <rect fill="none" x="763.72" width="32.56" height="30" y="585" clip-path="url(#clipPath2)"/>
      <text x="776.1826" xml:space="preserve" y="604.1543" clip-path="url(#clipPath2)" stroke="none">2</text>
      <rect fill="none" x="703.72" width="32.56" height="30" y="585" clip-path="url(#clipPath2)"/>
      <text x="716.1914" xml:space="preserve" y="604.1543" clip-path="url(#clipPath2)" stroke="none">b</text>
      <rect fill="none" x="883.72" width="32.56" height="30" y="585" clip-path="url(#clipPath2)"/>
      <text x="896.1826" xml:space="preserve" y="604.1543" clip-path="url(#clipPath2)" stroke="none">0</text>
      <rect fill="none" x="823.72" width="32.56" height="30" y="585" clip-path="url(#clipPath2)"/>
      <text x="836.1914" xml:space="preserve" y="604.1543" clip-path="url(#clipPath2)" stroke="none">b</text>
      <rect fill="none" x="943.72" width="32.56" height="30" y="585" clip-path="url(#clipPath2)"/>
      <text x="956.1914" xml:space="preserve" y="604.1543" clip-path="url(#clipPath2)" stroke="none">b</text>
      <path fill="none" d="M490.5276 338.3453 L333.2332 405.7572" clip-path="url(#clipPath2)"/>
      <path d="M325.88 408.9086 L338.8793 408.7772 L334.1523 405.3633 L334.9401 399.5858 Z" clip-path="url(#clipPath2)" stroke="none"/>
      <path fill="none" d="M493.2708 342.5469 L416.4 400.2" clip-path="url(#clipPath2)"/>
      <path d="M410 405 L422.6 401.8 L417.2 399.6 L416.6 393.8 Z" clip-path="url(#clipPath2)" stroke="none"/>
      <path fill="none" d="M521.3653 347.048 L555.5624 398.3436" clip-path="url(#clipPath2)"/>
      <path d="M560 405 L557.5038 392.2419 L555.0077 397.5116 L549.1833 397.7889 Z" clip-path="url(#clipPath2)" stroke="none"/>
      <path fill="none" d="M530.7451 334.9393 L854.3375 411.9851" clip-path="url(#clipPath2)"/>
      <path d="M862.12 413.8381 L851.6044 406.1946 L853.3647 411.7535 L849.2882 415.9227 Z" clip-path="url(#clipPath2)" stroke="none"/>
      <path fill="none" d="M300 435 L300 487" clip-path="url(#clipPath2)"/>
      <path d="M300 495 L305 483 L300 486 L295 483 Z" clip-path="url(#clipPath2)" stroke="none"/>
      <path fill="none" d="M390 435 L390 487" clip-path="url(#clipPath2)"/>
      <path d="M390 495 L395 483 L390 486 L385 483 Z" clip-path="url(#clipPath2)" stroke="none"/>
      <path fill="none" stroke-dasharray="6,2" d="M560 435 L524.4376 488.3436" clip-path="url(#clipPath2)"/>
      <path stroke-dasharray="6,2" d="M520 495 L530.8167 487.7889 L524.9923 487.5116 L522.4962 482.2419 Z" clip-path="url(#clipPath2)" stroke="none"/>
      <path fill="none" d="M580 435 L615.5624 488.3436" clip-path="url(#clipPath2)"/>
      <path d="M620 495 L617.5038 482.2419 L615.0077 487.5116 L609.1833 487.7889 Z" clip-path="url(#clipPath2)" stroke="none"/>
      <path fill="none" d="M595.88 432.94 L726.5646 498.2823" clip-path="url(#clipPath2)"/>
      <path d="M733.72 501.86 L725.2229 492.0213 L725.6701 497.8351 L720.7508 500.9655 Z" clip-path="url(#clipPath2)" stroke="none"/>
      <path fill="none" stroke-dasharray="6,2" d="M885 435 L874.5689 487.1554" clip-path="url(#clipPath2)"/>
      <path stroke-dasharray="6,2" d="M873 495 L880.2563 484.2136 L874.765 486.1748 L870.4504 482.2525 Z" clip-path="url(#clipPath2)" stroke="none"/>
      <path fill="none" d="M898.6 435 L936.3831 488.4667" clip-path="url(#clipPath2)"/>
      <path d="M941 495 L938.158 482.3145 L935.806 487.65 L929.9913 488.0856 Z" clip-path="url(#clipPath2)" stroke="none"/>
      <path fill="none" d="M283.72 522.21 L202.68 582.99" clip-path="url(#clipPath2)"/>
      <path d="M196.28 587.79 L208.88 584.59 L203.48 582.39 L202.88 576.59 Z" clip-path="url(#clipPath2)" stroke="none"/>
      <path fill="none" d="M295 525 L277.5298 577.4105" clip-path="url(#clipPath2)"/>
      <path d="M275 585 L283.5381 575.1969 L277.846 576.4619 L274.0513 572.0347 Z" clip-path="url(#clipPath2)" stroke="none"/>
      <path fill="none" d="M385 525 L367.5298 577.4105" clip-path="url(#clipPath2)"/>
      <path d="M365 585 L373.5381 575.1969 L367.846 576.4619 L364.0513 572.0347 Z" clip-path="url(#clipPath2)" stroke="none"/>
      <path fill="none" d="M395 525 L412.4702 577.4105" clip-path="url(#clipPath2)"/>
      <path d="M415 585 L415.9487 572.0347 L412.154 576.4619 L406.4619 575.1969 Z" clip-path="url(#clipPath2)" stroke="none"/>
      <path fill="none" d="M505 525 L487.5298 577.4105" clip-path="url(#clipPath2)"/>
      <path d="M485 585 L493.5381 575.1969 L487.846 576.4619 L484.0513 572.0347 Z" clip-path="url(#clipPath2)" stroke="none"/>
      <path fill="none" d="M635 525 L652.4702 577.4105" clip-path="url(#clipPath2)"/>
      <path d="M655 585 L655.9487 572.0347 L652.1539 576.4619 L646.4619 575.197 Z" clip-path="url(#clipPath2)" stroke="none"/>
      <path fill="none" d="M625 525 L607.5298 577.4105" clip-path="url(#clipPath2)"/>
      <path d="M605 585 L613.5381 575.197 L607.8461 576.4619 L604.0513 572.0347 Z" clip-path="url(#clipPath2)" stroke="none"/>
      <path fill="none" d="M515 525 L532.4702 577.4105" clip-path="url(#clipPath2)"/>
      <path d="M535 585 L535.9487 572.0347 L532.1539 576.4619 L526.4619 575.197 Z" clip-path="url(#clipPath2)" stroke="none"/>
      <path fill="none" d="M755 525 L772.4702 577.4105" clip-path="url(#clipPath2)"/>
      <path d="M775 585 L775.9487 572.0347 L772.1539 576.4619 L766.4619 575.197 Z" clip-path="url(#clipPath2)" stroke="none"/>
      <path fill="none" d="M745 525 L727.5298 577.4105" clip-path="url(#clipPath2)"/>
      <path d="M725 585 L733.5381 575.197 L727.8461 576.4619 L724.0513 572.0347 Z" clip-path="url(#clipPath2)" stroke="none"/>
      <path fill="none" d="M875 525 L892.4702 577.4105" clip-path="url(#clipPath2)"/>
      <path d="M895 585 L895.9487 572.0347 L892.1539 576.4619 L886.4619 575.197 Z" clip-path="url(#clipPath2)" stroke="none"/>
      <path fill="none" d="M865 525 L847.5298 577.4105" clip-path="url(#clipPath2)"/>
      <path d="M845 585 L853.5381 575.197 L847.8461 576.4619 L844.0513 572.0347 Z" clip-path="url(#clipPath2)" stroke="none"/>
      <path fill="none" d="M953 525 L957.8566 577.0346" clip-path="url(#clipPath2)"/>
      <path d="M958.6 585 L962.4633 572.5873 L957.7637 576.0389 L952.5065 573.5165 Z" clip-path="url(#clipPath2)" stroke="none"/>
    </g>
  </g>
</svg>
