<?xml version="1.0" encoding="UTF-8"?><svg xmlns="http://www.w3.org/2000/svg" xmlns:xlink="http://www.w3.org/1999/xlink" fill-opacity="1" color-rendering="auto" color-interpolation="auto" text-rendering="auto" stroke="black" stroke-linecap="square" width="346" stroke-miterlimit="10" shape-rendering="auto" stroke-opacity="1" fill="black" stroke-dasharray="none" font-weight="normal" stroke-width="1" height="335" font-family="'Dialog'" font-style="normal" stroke-linejoin="miter" font-size="12px" stroke-dashoffset="0" image-rendering="auto">
  <!--Generated by ySVG 2.5-->
  <defs id="genericDefs"/>
  <g>
    <defs id="defs1">
      <clipPath clipPathUnits="userSpaceOnUse" id="clipPath1">
        <path d="M0 0 L346 0 L346 335 L0 335 L0 0 Z"/>
      </clipPath>
      <clipPath clipPathUnits="userSpaceOnUse" id="clipPath2">
        <path d="M388 325 L734 325 L734 660 L388 660 L388 325 Z"/>
      </clipPath>
    </defs>
    <g text-rendering="geometricPrecision" stroke-miterlimit="1.45" shape-rendering="geometricPrecision" transform="matrix(1,0,0,1,-388,-325)" stroke-linecap="butt">
      <ellipse rx="21.4" fill="none" ry="20.12" clip-path="url(#clipPath2)" cx="540.72" cy="360.88"/>
    </g>
    <g text-rendering="geometricPrecision" stroke-miterlimit="1.45" shape-rendering="geometricPrecision" font-family="sans-serif" transform="matrix(1,0,0,1,-388,-325)" stroke-linecap="butt">
      <text x="533.926" xml:space="preserve" y="365.0343" clip-path="url(#clipPath2)" stroke="none">f()</text>
      <rect fill="none" x="424.12" width="51.76" height="30" y="435" clip-path="url(#clipPath2)"/>
      <text x="440.3057" xml:space="preserve" y="454.1543" clip-path="url(#clipPath2)" stroke="none">var</text>
      <rect fill="none" x="604.12" width="51.76" height="30" y="435" clip-path="url(#clipPath2)"/>
      <text x="614.2646" xml:space="preserve" y="454.1543" clip-path="url(#clipPath2)" stroke="none">while</text>
      <rect fill="none" x="433.72" width="32.56" height="30" y="525" clip-path="url(#clipPath2)"/>
      <text x="444.9727" xml:space="preserve" y="544.1543" clip-path="url(#clipPath2)" stroke="none">=</text>
      <rect fill="none" x="595.72" width="32.56" height="30" y="525" clip-path="url(#clipPath2)"/>
      <text x="604.5674" xml:space="preserve" y="544.1543" clip-path="url(#clipPath2)" stroke="none">!=</text>
      <rect fill="none" x="677.32" width="32.56" height="30" y="525" clip-path="url(#clipPath2)"/>
      <text x="689.2699" xml:space="preserve" y="544.1543" clip-path="url(#clipPath2)" stroke="none">--</text>
      <rect fill="none" x="403.72" width="32.56" height="30" y="615" clip-path="url(#clipPath2)"/>
      <text x="416.1914" xml:space="preserve" y="634.1543" clip-path="url(#clipPath2)" stroke="none">b</text>
      <rect fill="none" x="463.72" width="32.56" height="30" y="615" clip-path="url(#clipPath2)"/>
      <text x="476.1826" xml:space="preserve" y="634.1543" clip-path="url(#clipPath2)" stroke="none">0</text>
      <rect fill="none" x="625.72" width="32.56" height="30" y="615" clip-path="url(#clipPath2)"/>
      <text x="638.1826" xml:space="preserve" y="634.1543" clip-path="url(#clipPath2)" stroke="none">0</text>
      <rect fill="none" x="565.72" width="32.56" height="30" y="615" clip-path="url(#clipPath2)"/>
      <text x="578.1914" xml:space="preserve" y="634.1543" clip-path="url(#clipPath2)" stroke="none">b</text>
      <rect fill="none" x="685.72" width="32.56" height="30" y="615" clip-path="url(#clipPath2)"/>
      <text x="698.1914" xml:space="preserve" y="634.1543" clip-path="url(#clipPath2)" stroke="none">b</text>
      <path fill="none" d="M525.9235 375.4156 L470.9763 429.3937" clip-path="url(#clipPath2)"/>
      <path d="M465.2693 435 L477.3337 430.1574 L471.6896 428.6929 L470.3258 423.0237 Z" clip-path="url(#clipPath2)" stroke="none"/>
      <path fill="none" d="M555.3926 375.5263 L609.3112 429.3482" clip-path="url(#clipPath2)"/>
      <path d="M614.9731 435 L610.0125 422.9836 L608.6034 428.6418 L602.9478 430.0611 Z" clip-path="url(#clipPath2)" stroke="none"/>
      <path fill="none" d="M450 465 L450 517" clip-path="url(#clipPath2)"/>
      <path d="M450 525 L455 513 L450 516 L445 513 Z" clip-path="url(#clipPath2)" stroke="none"/>
      <path fill="none" stroke-dasharray="6,2" d="M627 465 L616.5689 517.1553" clip-path="url(#clipPath2)"/>
      <path stroke-dasharray="6,2" d="M615 525 L622.2563 514.2136 L616.765 516.1747 L612.4504 512.2524 Z" clip-path="url(#clipPath2)" stroke="none"/>
      <path fill="none" d="M640.6 465 L678.3831 518.4667" clip-path="url(#clipPath2)"/>
      <path d="M683 525 L680.158 512.3145 L677.806 517.65 L671.9913 518.0856 Z" clip-path="url(#clipPath2)" stroke="none"/>
      <path fill="none" d="M445 555 L427.5298 607.4105" clip-path="url(#clipPath2)"/>
      <path d="M425 615 L433.5381 605.1969 L427.846 606.4619 L424.0513 602.0347 Z" clip-path="url(#clipPath2)" stroke="none"/>
      <path fill="none" d="M455 555 L472.4702 607.4105" clip-path="url(#clipPath2)"/>
      <path d="M475 615 L475.9487 602.0347 L472.154 606.4619 L466.4619 605.1969 Z" clip-path="url(#clipPath2)" stroke="none"/>
      <path fill="none" d="M617 555 L634.4702 607.4105" clip-path="url(#clipPath2)"/>
      <path d="M637 615 L637.9487 602.0347 L634.1539 606.4619 L628.4619 605.197 Z" clip-path="url(#clipPath2)" stroke="none"/>
      <path fill="none" d="M607 555 L589.5298 607.4105" clip-path="url(#clipPath2)"/>
      <path d="M587 615 L595.5381 605.197 L589.8461 606.4619 L586.0513 602.0347 Z" clip-path="url(#clipPath2)" stroke="none"/>
      <path fill="none" d="M695 555 L699.8566 607.0346" clip-path="url(#clipPath2)"/>
      <path d="M700.6 615 L704.4633 602.5873 L699.7637 606.0389 L694.5065 603.5165 Z" clip-path="url(#clipPath2)" stroke="none"/>
    </g>
  </g>
</svg>
