<?xml version="1.0" encoding="UTF-8"?><svg xmlns="http://www.w3.org/2000/svg" xmlns:xlink="http://www.w3.org/1999/xlink" fill-opacity="1" color-rendering="auto" color-interpolation="auto" text-rendering="auto" stroke="black" stroke-linecap="square" width="393" stroke-miterlimit="10" shape-rendering="auto" stroke-opacity="1" fill="black" stroke-dasharray="none" font-weight="normal" stroke-width="1" height="643" font-family="'Dialog'" font-style="normal" stroke-linejoin="miter" font-size="12px" stroke-dashoffset="0" image-rendering="auto">
  <!--Generated by ySVG 2.5-->
  <defs id="genericDefs"/>
  <g>
    <defs id="defs1">
      <clipPath clipPathUnits="userSpaceOnUse" id="clipPath1">
        <path d="M0 0 L393 0 L393 643 L0 643 L0 0 Z"/>
      </clipPath>
      <clipPath clipPathUnits="userSpaceOnUse" id="clipPath2">
        <path d="M550 165 L986.6667 165 L986.6667 879.4445 L550 879.4445 L550 165 Z"/>
      </clipPath>
    </defs>
    <g text-rendering="geometricPrecision" stroke-miterlimit="1.45" shape-rendering="geometricPrecision" transform="matrix(0.9,0,0,0.9,-495,-148.5)" stroke-linecap="butt">
      <ellipse rx="55.9" fill="none" ry="27.5" clip-path="url(#clipPath2)" cx="720" cy="210"/>
    </g>
    <g font-size="14px" stroke-linecap="butt" transform="matrix(0.9,0,0,0.9,-495,-148.5)" text-rendering="geometricPrecision" font-family="sans-serif" shape-rendering="geometricPrecision" stroke-miterlimit="1.45">
      <text x="682.3066" xml:space="preserve" y="206.6982" clip-path="url(#clipPath2)" stroke="none">Проект на</text>
      <text x="675.8364" xml:space="preserve" y="222.9951" clip-path="url(#clipPath2)" stroke="none">языке Kotlin</text>
      <rect fill="none" x="634.5" width="171" height="55" y="272.5" clip-path="url(#clipPath2)"/>
      <text x="653.5889" xml:space="preserve" y="296.6982" clip-path="url(#clipPath2)" stroke="none">Предварительное</text>
      <text x="645.7925" xml:space="preserve" y="312.9951" clip-path="url(#clipPath2)" stroke="none">упрощение проекта</text>
      <rect fill="none" x="634.5" width="171" height="55" y="362.5" clip-path="url(#clipPath2)"/>
      <text x="685.147" xml:space="preserve" y="394.8467" clip-path="url(#clipPath2)" stroke="none">Слайсинг</text>
      <rect fill="none" x="634.5" width="171" height="55" y="452.5" clip-path="url(#clipPath2)"/>
      <text x="644.4902" xml:space="preserve" y="468.5498" clip-path="url(#clipPath2)" stroke="none">Трансформации над</text>
      <text x="678.0205" xml:space="preserve" y="484.8467" clip-path="url(#clipPath2)" stroke="none">текстовым </text>
      <text x="657.998" xml:space="preserve" y="501.1436" clip-path="url(#clipPath2)" stroke="none">представлением</text>
      <rect fill="none" x="634.5" width="171" height="55" y="542.5" clip-path="url(#clipPath2)"/>
      <text x="644.4902" xml:space="preserve" y="558.5498" clip-path="url(#clipPath2)" stroke="none">Трансформации над</text>
      <text x="659.6831" xml:space="preserve" y="574.8467" clip-path="url(#clipPath2)" stroke="none">синтаксическим</text>
      <text x="688.4146" xml:space="preserve" y="591.1436" clip-path="url(#clipPath2)" stroke="none">деревом</text>
      <rect fill="none" x="634.5" width="171" height="55" y="632.5" clip-path="url(#clipPath2)"/>
      <text x="662.9712" xml:space="preserve" y="656.6982" clip-path="url(#clipPath2)" stroke="none">Иерархический</text>
      <text x="653.4487" xml:space="preserve" y="672.9951" clip-path="url(#clipPath2)" stroke="none">дельта-дебаггинг</text>
      <path fill="none" d="M619 765.25 L720 722.5 L821 765.25 L720 808 Z" fill-rule="evenodd" clip-path="url(#clipPath2)"/>
      <text x="655.1816" xml:space="preserve" y="761.9482" clip-path="url(#clipPath2)" stroke="none">Тестовый пример</text>
      <text x="676.7661" xml:space="preserve" y="778.2451" clip-path="url(#clipPath2)" stroke="none">изменился?</text>
      <ellipse rx="51.5" fill="none" ry="27.5" clip-path="url(#clipPath2)" cx="918" cy="765.25"/>
      <text x="894.4058" xml:space="preserve" y="770.0967" clip-path="url(#clipPath2)" stroke="none">Выход</text>
      <text x="810.1" xml:space="preserve" font-size="22px" y="279.7162" clip-path="url(#clipPath2)" stroke="none">*</text>
      <text x="571.958" xml:space="preserve" y="839.4482" clip-path="url(#clipPath2)" stroke="none">* - после применения каждой трансформации</text>
      <text x="571.958" xml:space="preserve" y="855.7451" clip-path="url(#clipPath2)" stroke="none">производится проверка воспроизведения ошибки</text>
      <text x="810.1" xml:space="preserve" font-size="22px" y="371.4162" clip-path="url(#clipPath2)" stroke="none">*</text>
      <text x="810.1" xml:space="preserve" font-size="22px" y="463.1162" clip-path="url(#clipPath2)" stroke="none">*</text>
      <text x="810.1" xml:space="preserve" font-size="22px" y="554.8162" clip-path="url(#clipPath2)" stroke="none">*</text>
      <text x="810.1" xml:space="preserve" font-size="22px" y="646.5162" clip-path="url(#clipPath2)" stroke="none">*</text>
      <path fill="none" d="M720 237.5 L720 264.5" clip-path="url(#clipPath2)"/>
      <path d="M720 272.5 L725 260.5 L720 263.5 L715 260.5 Z" stroke="none" clip-path="url(#clipPath2)"/>
      <path fill="none" d="M720 327.5 L720 354.5" clip-path="url(#clipPath2)"/>
      <path d="M720 362.5 L725 350.5 L720 353.5 L715 350.5 Z" stroke="none" clip-path="url(#clipPath2)"/>
      <path fill="none" d="M720 417.5 L720 444.5" clip-path="url(#clipPath2)"/>
      <path d="M720 452.5 L725 440.5 L720 443.5 L715 440.5 Z" stroke="none" clip-path="url(#clipPath2)"/>
      <path fill="none" d="M720 507.5 L720 534.5" clip-path="url(#clipPath2)"/>
      <path d="M720 542.5 L725 530.5 L720 533.5 L715 530.5 Z" stroke="none" clip-path="url(#clipPath2)"/>
      <path fill="none" d="M720 597.5 L720 624.5" clip-path="url(#clipPath2)"/>
      <path d="M720 632.5 L725 620.5 L720 623.5 L715 620.5 Z" stroke="none" clip-path="url(#clipPath2)"/>
      <path fill="none" d="M720 687.5 L720 702.625 L719.616 702.625 L719.616 714.6471" clip-path="url(#clipPath2)"/>
      <path d="M719.616 722.6471 L724.616 710.6471 L719.616 713.6471 L714.616 710.6471 Z" stroke="none" clip-path="url(#clipPath2)"/>
      <path fill="none" d="M619.0356 765.25 L570 765.25 L570 253.048 L709.4384 253.048" clip-path="url(#clipPath2)"/>
      <path d="M717.4384 253.048 L705.4384 248.048 L708.4384 253.048 L705.4384 258.048 Z" stroke="none" clip-path="url(#clipPath2)"/>
      <text x="590.2417" xml:space="preserve" y="740.0967" clip-path="url(#clipPath2)" stroke="none">Да</text>
      <path fill="none" d="M820.9819 765.25 L858.5 765.25" clip-path="url(#clipPath2)"/>
      <path d="M866.5 765.25 L854.5 760.25 L857.5 765.25 L854.5 770.25 Z" stroke="none" clip-path="url(#clipPath2)"/>
      <text x="828" xml:space="preserve" y="740.0967" clip-path="url(#clipPath2)" stroke="none">Нет</text>
    </g>
  </g>
</svg>
