<?xml version="1.0" encoding="UTF-8"?><svg xmlns="http://www.w3.org/2000/svg" xmlns:xlink="http://www.w3.org/1999/xlink" fill-opacity="1" color-rendering="auto" color-interpolation="auto" text-rendering="auto" stroke="black" stroke-linecap="square" width="220" stroke-miterlimit="10" shape-rendering="auto" stroke-opacity="1" fill="black" stroke-dasharray="none" font-weight="normal" stroke-width="1" height="305" font-family="'Dialog'" font-style="normal" stroke-linejoin="miter" font-size="12px" stroke-dashoffset="0" image-rendering="auto">
  <!--Generated by ySVG 2.5-->
  <defs id="genericDefs"/>
  <g>
    <defs id="defs1">
      <clipPath clipPathUnits="userSpaceOnUse" id="clipPath1">
        <path d="M0 0 L220 0 L220 305 L0 305 L0 0 Z"/>
      </clipPath>
      <clipPath clipPathUnits="userSpaceOnUse" id="clipPath2">
        <path d="M580 186 L800 186 L800 491 L580 491 L580 186 Z"/>
      </clipPath>
    </defs>
    <g text-rendering="geometricPrecision" stroke-miterlimit="1.45" shape-rendering="geometricPrecision" transform="matrix(1,0,0,1,-580,-186)" stroke-linecap="butt">
      <rect x="595.5" y="201.5" clip-path="url(#clipPath2)" fill="none" width="189" rx="4" ry="4" height="77"/>
    </g>
    <g font-size="18px" stroke-linecap="butt" transform="matrix(1,0,0,1,-580,-186)" text-rendering="geometricPrecision" font-family="sans-serif" shape-rendering="geometricPrecision" stroke-miterlimit="1.45">
      <text x="621.1377" xml:space="preserve" y="246.2314" clip-path="url(#clipPath2)" stroke="none">Coarse-grained</text>
      <text x="681.4175" xml:space="preserve" y="366.2314" clip-path="url(#clipPath2)" stroke="none">...</text>
      <rect x="624" y="424.5" clip-path="url(#clipPath2)" fill="none" width="132" rx="4" ry="4" height="51"/>
      <text x="633.4512" xml:space="preserve" y="456.2314" clip-path="url(#clipPath2)" stroke="none">Fine-grained</text>
      <path fill="none" d="M690 278.5254 L690 337.002" clip-path="url(#clipPath2)"/>
      <path d="M690 345.002 L695 333.002 L690 336.002 L685 333.002 Z" stroke="none" clip-path="url(#clipPath2)"/>
      <path fill="none" d="M690 374.9854 L690 416.4701" clip-path="url(#clipPath2)"/>
      <path d="M690 424.4701 L695 412.4701 L690 415.4701 L685 412.4701 Z" stroke="none" clip-path="url(#clipPath2)"/>
    </g>
  </g>
</svg>
