<?xml version="1.0" encoding="UTF-8"?><svg xmlns="http://www.w3.org/2000/svg" xmlns:xlink="http://www.w3.org/1999/xlink" fill-opacity="1" color-rendering="auto" color-interpolation="auto" text-rendering="auto" stroke="black" stroke-linecap="square" width="496" stroke-miterlimit="10" shape-rendering="auto" stroke-opacity="1" fill="black" stroke-dasharray="none" font-weight="normal" stroke-width="1" height="278" font-family="'Dialog'" font-style="normal" stroke-linejoin="miter" font-size="12px" stroke-dashoffset="0" image-rendering="auto">
  <!--Generated by ySVG 2.5-->
  <defs id="genericDefs"/>
  <g>
    <defs id="defs1">
      <clipPath clipPathUnits="userSpaceOnUse" id="clipPath1">
        <path d="M0 0 L496 0 L496 278 L0 278 L0 0 Z"/>
      </clipPath>
      <clipPath clipPathUnits="userSpaceOnUse" id="clipPath2">
        <path d="M342 228 L838 228 L838 506 L342 506 L342 228 Z"/>
      </clipPath>
    </defs>
    <g text-rendering="geometricPrecision" stroke-miterlimit="1.45" shape-rendering="geometricPrecision" transform="matrix(1,0,0,1,-342,-228)" stroke-linecap="butt">
      <rect fill="none" x="357" width="91" height="50" y="342" clip-path="url(#clipPath2)"/>
    </g>
    <g font-size="14px" stroke-linecap="butt" transform="matrix(1,0,0,1,-342,-228)" text-rendering="geometricPrecision" font-family="sans-serif" shape-rendering="geometricPrecision" stroke-miterlimit="1.45">
      <text x="365.0425" xml:space="preserve" y="371.8467" clip-path="url(#clipPath2)" stroke="none">Bug oracle</text>
      <rect fill="none" x="525" width="78" height="50" y="341" clip-path="url(#clipPath2)"/>
      <text x="531.4541" xml:space="preserve" y="370.8467" clip-path="url(#clipPath2)" stroke="none">ReduKtor</text>
      <rect fill="none" x="695.6405" width="127" height="50" y="252.8701" clip-path="url(#clipPath2)"/>
      <rect fill="none" x="692" width="116" height="50" y="342" clip-path="url(#clipPath2)"/>
      <text x="726.9937" xml:space="preserve" y="371.8467" clip-path="url(#clipPath2)" stroke="none">Slicing</text>
      <rect fill="none" x="692" width="116" height="50" y="425" clip-path="url(#clipPath2)"/>
      <text x="733.9561" xml:space="preserve" y="454.8467" clip-path="url(#clipPath2)" stroke="none">HDD</text>
      <text x="511.7974" xml:space="preserve" y="291.8467" clip-path="url(#clipPath2)" stroke="none">Kotlin program</text>
      <text x="501.0923" xml:space="preserve" y="451.8467" clip-path="url(#clipPath2)" stroke="none">Reduced program</text>
    </g>
    <g fill="white" text-rendering="geometricPrecision" shape-rendering="geometricPrecision" transform="matrix(1,0,0,1,-342,-228)" stroke="white">
      <rect x="691.5413" width="127" height="50" y="257.0032" clip-path="url(#clipPath2)" stroke="none"/>
    </g>
    <g text-rendering="geometricPrecision" stroke-miterlimit="1.45" shape-rendering="geometricPrecision" transform="matrix(1,0,0,1,-342,-228)" stroke-linecap="butt">
      <rect fill="none" x="691.5413" width="127" height="50" y="257.0032" clip-path="url(#clipPath2)"/>
    </g>
    <g fill="white" text-rendering="geometricPrecision" shape-rendering="geometricPrecision" transform="matrix(1,0,0,1,-342,-228)" stroke="white">
      <rect x="686.5" width="127" height="50" y="262" clip-path="url(#clipPath2)" stroke="none"/>
    </g>
    <g text-rendering="geometricPrecision" stroke-miterlimit="1.45" shape-rendering="geometricPrecision" transform="matrix(1,0,0,1,-342,-228)" stroke-linecap="butt">
      <rect fill="none" x="686.5" width="127" height="50" y="262" clip-path="url(#clipPath2)"/>
      <text x="692.6841" font-size="14px" y="291.8467" clip-path="url(#clipPath2)" font-family="sans-serif" stroke="none" xml:space="preserve">Transformations</text>
      <path fill="none" d="M447.9743 373.2774 L517.0276 373.2774" clip-path="url(#clipPath2)"/>
      <path d="M525.0276 373.2774 L513.0276 368.2774 L516.0276 373.2774 L513.0276 378.2774 Z" clip-path="url(#clipPath2)" stroke="none"/>
      <path fill="none" d="M524.9759 360.4774 L455.9913 360.4774" clip-path="url(#clipPath2)"/>
      <path d="M447.9913 360.4774 L459.9913 365.4774 L456.9913 360.4774 L459.9913 355.4774 Z" clip-path="url(#clipPath2)" stroke="none"/>
      <path fill="none" stroke-dasharray="6,2" d="M603.0116 341.4798 L683.9821 243.498 L755.12 243.498 L755.12 243.498" clip-path="url(#clipPath2)"/>
      <path fill="none" stroke-dasharray="6,2" d="M602.9169 391.0089 L690 489.5413 L749.5406 489.5413" clip-path="url(#clipPath2)"/>
      <path fill="none" d="M564 312 L564 333" clip-path="url(#clipPath2)"/>
      <path d="M564 341 L569 329 L564 332 L559 329 Z" clip-path="url(#clipPath2)" stroke="none"/>
      <path fill="none" d="M564 391 L564 413.9778" clip-path="url(#clipPath2)"/>
      <path d="M564 421.9778 L569 409.9778 L564 412.9778 L559 409.9778 Z" clip-path="url(#clipPath2)" stroke="none"/>
    </g>
  </g>
</svg>
